<svg xmlns="http://www.w3.org/2000/svg" viewBox="0 0 512 512" width="40" height="40" aria-label="Alexa"><circle cx="256" cy="256" r="248" fill="#00CAFF"/><path fill="#FFFFFF" d="M256 112c-79.5 0-144 64.5-144 144 0 58.2 34.6 108.3 84.4 130.9 1.2.5 2.5-.3 2.6-1.6l2.3-21.1c.1-1-.4-2-1.4-2.4-38.9-18.9-65.7-58.7-65.7-104.8 0-64.3 52.1-116.4 116.4-116.4s116.4 52.1 116.4 116.4c0 46.1-26.9 85.9-65.8 104.8-2.4 1.2-3.9 3.7-3.8 6.4l.9 82.3c0 2.4 2.4 4 4.6 3 55.1-20.9 94.1-74.2 94.1-136.5 0-79.5-64.5-144-144-144z"/></svg>
